# xmcd
#
# Track frame offsets:
#	150
#	16319
#	30781
#	43860
#	57480
#	70821
#	87126
#	106945
#	123304
#	137109
#	151878
#	168610
#	190764
#
# Disc length: 2734
#
# Revision: 1
# Processed by: cddbd v1.5.1PL0 Copyright (c) Steve Scherf et al.
# Submitted via: VisiTrax 2.9.5.180 - For more info visit www.synapsa.com
# Normalized: r0:DSETVAR1
#
DISCID=a40aac0d
DTITLE=Various Artist - CDX 219 August 1999
DYEAR=1999
DGENRE=
TTITLE0=Randy Travis - A man ain't made of stone
TTITLE1=South Sixty Five - Baby's got my number
TTITLE2=Chalee Tennison - Handful of water
TTITLE3=Lorrie Morgan - Here I go again
TTITLE4=Martina McBride - I love you
TTITLE5=Lace - I want a man
TTITLE6=Gary Allan - Smoke rings in the dark
TTITLE7=Redmond and Vale - Squeezin the love outta you
TTITLE8=Bruce Robison - The good life
TTITLE9=Lisa Bowman - Bad habits
TTITLE10=Joseph James - One track mind
TTITLE11=Joseph James - One track mind
TTITLE12=Damon Gray - You
EXTD=
EXTT0=
EXTT1=
EXTT2=
EXTT3=
EXTT4=
EXTT5=
EXTT6=
EXTT7=
EXTT8=
EXTT9=
EXTT10=
EXTT11=
EXTT12=
PLAYORDER=
